<svg width="36" height="39" viewBox="0 0 36 39" fill="none" xmlns="http://www.w3.org/2000/svg">
<path fill-rule="evenodd" clip-rule="evenodd" d="M25.3388 27.7459C26.1409 27.4908 26.4226 30.3293 28.1784 30.4805C31.8069 30.7927 34.5733 33.2234 35.8277 36.7177C36.0745 37.4056 35.605 37.6418 34.8467 37.9286C34.0686 38.2231 33.0553 38.4147 32.9556 37.7676C32.5629 34.9386 30.8874 32.0475 27.9777 31.6409C26.3494 31.4141 25.8113 34.1388 25.0587 33.7854C24.7137 33.6233 25.4056 32.681 25.5282 30.9753C25.6437 29.361 25.0459 27.8389 25.3388 27.7459Z" fill="#00582E"/>
<path fill-rule="evenodd" clip-rule="evenodd" d="M20.5587 1.24955C32.6335 4.09373 34.5288 15.5865 31.5554 22.3112C31.4804 22.5546 31.2648 22.6318 31.1001 22.5879C30.9539 22.549 30.796 22.3763 30.8432 22.1019C31.8033 16.1149 29.806 9.91662 23.885 7.60045C18.6649 5.55831 11.6354 7.70819 10.1541 13.7416C8.71484 19.6001 12.7083 24.3186 18.4991 25.2439C20.7226 25.5988 22.4859 25.6434 23.7673 27.385C25.2204 29.3603 25.2271 32.3583 23.4886 34.3169C21.8337 36.1825 19.4757 36.2453 17.1679 36.1342C6.33055 35.6114 -1.5457 26.3782 0.257706 15.2138C1.75886 5.92046 10.6713 -1.07947 20.5587 1.24955Z" fill="#E31E24"/>
</svg>
